<svg width="90" height="24" viewBox="0 0 90 24" fill="none" xmlns="http://www.w3.org/2000/svg"><style>path,polygon,circle,ellipse{fill:#fff;}path,polygon,circle,ellipse{fill:#fff}</style>
<g clip-path="url(#clip0_1046_629)">
<path d="M9.83425 21.7193H8.85919L0 2.00149L1.50366 2.01941L9.37584 19.5422L17.2465 2.01941L18.6964 2L9.83425 21.7193Z" fill="#fff"/>
<path d="M29.0434 21.5692H27.6965V2.15005H29.0434V21.5692Z" fill="#fff"/>
<path d="M45.5227 21.4968H38.0432V20.2395H45.5227C47.7879 20.2395 49.7037 18.3013 49.7037 16.0063C49.7037 14.2443 48.5733 12.6839 46.8905 12.1254L46.5336 12.0075V11.219L46.7844 11.0667C47.8909 10.3933 48.5778 9.01059 48.5778 7.45467C48.5778 5.26264 46.7143 3.47975 44.4237 3.47975H38.9212V2.22247H44.4237C47.4683 2.22247 49.9456 4.56979 49.9456 7.45317C49.9456 8.99864 49.3946 10.4217 48.424 11.4132C50.0665 12.3673 51.0714 14.0979 51.0714 16.0063C51.0714 18.9822 48.5315 21.4968 45.5242 21.4968H45.5227Z" fill="#fff"/>
<path d="M61.4184 21.5692H60.0715V2.15005H61.4184V21.5692Z" fill="#fff"/>
<path d="M70.4185 21.7193L79.2806 2H80.2557L89.1164 21.7178L87.6142 21.6999L79.742 4.17859L71.8699 21.6999L70.4199 21.7193H70.4185Z" fill="#fff"/>
</g>
<defs>
<clipPath id="clip0_1046_629">
<rect width="89.1163" height="23.7193" fill="#fff"/>
</clipPath>
</defs>
</svg>
